<?xml version="1.0" encoding="UTF-8"?><svg id="a" xmlns="http://www.w3.org/2000/svg" viewBox="0 0 199.16 190.47"><defs><style>.b{fill:#263168;}</style></defs><path class="b" d="M162.47,182.97H40.75c-3.2,0-5.8-2.6-5.8-5.8V16.29c0-3.21,2.6-5.82,5.8-5.82h48.63v2.35H40.75c-1.9,0-3.45,1.55-3.45,3.47V177.17c0,1.9,1.55,3.45,3.45,3.45h121.72c1.9,0,3.45-1.55,3.45-3.45V16.29c0-1.91-1.55-3.47-3.45-3.47h-48.61v-2.35h48.61c3.2,0,5.8,2.61,5.8,5.82V177.17c0,3.2-2.6,5.8-5.8,5.8Z"/><path class="b" d="M150.52,167.55H52.71c-3.24,0-5.88-2.64-5.88-5.88V31.78c0-3.24,2.64-5.88,5.88-5.88h28.71v2.35h-28.71c-1.95,0-3.53,1.58-3.53,3.53V161.67c0,1.95,1.58,3.53,3.53,3.53h97.81c1.95,0,3.53-1.58,3.53-3.53V31.78c0-1.95-1.58-3.53-3.53-3.53h-28.71v-2.35h28.71c3.24,0,5.88,2.64,5.88,5.88V161.67c0,3.24-2.64,5.88-5.88,5.88Z"/><path class="b" d="M96.75,31.24h-14.67c-1.02,0-1.84-.82-1.84-1.83v-4.76c0-5.36,4.36-9.73,9.73-9.73,.65,0,1.18,.53,1.18,1.18s-.53,1.18-1.18,1.18c-4.07,0-7.37,3.31-7.37,7.37v4.24h14.16c.65,0,1.18,.53,1.18,1.18s-.53,1.18-1.18,1.18Z"/><path class="b" d="M121.16,31.24h-15.35c-.65,0-1.18-.53-1.18-1.18s.53-1.18,1.18-1.18h14.82v-4.24c0-4.07-3.3-7.37-7.36-7.37-.65,0-1.18-.53-1.18-1.18s.53-1.18,1.18-1.18c5.36,0,9.72,4.36,9.72,9.73v4.75c0,1.02-.82,1.84-1.83,1.84Z"/><path class="b" d="M115.36,17.27h-2.09v-1.18h-.27v-2.13c0-4.06-3.3-7.36-7.36-7.36h-8.04c-4.06,0-7.36,3.3-7.36,7.36v2.13h-.27v1.18h-2.09v-3.3c0-5.36,4.36-9.72,9.72-9.72h8.04c5.36,0,9.72,4.36,9.72,9.72v3.3Z"/><path class="b" d="M71.98,77.97c-4.01,0-7.27-3.26-7.27-7.27s3.26-7.27,7.27-7.27,7.27,3.26,7.27,7.27-3.26,7.27-7.27,7.27Zm0-12.18c-2.71,0-4.91,2.2-4.91,4.91s2.2,4.91,4.91,4.91,4.91-2.2,4.91-4.91-2.2-4.91-4.91-4.91Z"/><path class="b" d="M71.98,108.81c-4.01,0-7.27-3.26-7.27-7.26s3.26-7.27,7.27-7.27,7.27,3.26,7.27,7.27-3.26,7.26-7.27,7.26Zm0-12.18c-2.71,0-4.91,2.2-4.91,4.91s2.2,4.91,4.91,4.91,4.91-2.2,4.91-4.91-2.2-4.91-4.91-4.91Z"/><path class="b" d="M71.98,139.65c-4.01,0-7.27-3.26-7.27-7.27s3.26-7.26,7.27-7.26,7.27,3.26,7.27,7.26-3.26,7.27-7.27,7.27Zm0-12.18c-2.71,0-4.91,2.2-4.91,4.91s2.2,4.91,4.91,4.91,4.91-2.2,4.91-4.91-2.2-4.91-4.91-4.91Z"/><path class="b" d="M137.66,71.88h-51.87c-.65,0-1.18-.53-1.18-1.18s.53-1.18,1.18-1.18h51.87c.65,0,1.18,.53,1.18,1.18s-.53,1.18-1.18,1.18Z"/><path class="b" d="M137.66,102.72h-51.87c-.65,0-1.18-.53-1.18-1.18s.53-1.18,1.18-1.18h51.87c.65,0,1.18,.53,1.18,1.18s-.53,1.18-1.18,1.18Z"/><path class="b" d="M137.66,133.56h-51.87c-.65,0-1.18-.53-1.18-1.18s.53-1.18,1.18-1.18h51.87c.65,0,1.18,.53,1.18,1.18s-.53,1.18-1.18,1.18Z"/><g><path class="b" d="M72.51,74.61c-.33,0-.66-.14-.89-.41l-3.78-4.41c-.42-.49-.37-1.24,.13-1.66,.49-.42,1.24-.36,1.66,.13l3.78,4.41c.42,.49,.37,1.24-.13,1.66-.22,.19-.49,.28-.77,.28Z"/><path class="b" d="M72.51,74.61c-.3,0-.61-.12-.84-.35-.46-.46-.45-1.21,0-1.66l8.91-8.81c.46-.46,1.21-.45,1.66,0s.45,1.21,0,1.66l-8.91,8.81c-.23,.23-.53,.34-.83,.34Z"/></g><g><path class="b" d="M73.05,104.9c-.33,0-.66-.14-.89-.41l-3.78-4.41c-.42-.49-.37-1.24,.13-1.66,.49-.42,1.24-.37,1.66,.13l3.78,4.41c.42,.49,.37,1.24-.13,1.66-.22,.19-.49,.28-.77,.28Z"/><path class="b" d="M73.05,104.9c-.3,0-.61-.12-.84-.35-.46-.46-.45-1.21,0-1.66l8.91-8.81c.46-.46,1.21-.45,1.66,0s.45,1.21,0,1.66l-8.91,8.81c-.23,.23-.53,.34-.83,.34Z"/></g><g><path class="b" d="M73.15,136.28c-.33,0-.66-.14-.89-.41l-3.78-4.41c-.42-.49-.37-1.24,.13-1.66,.49-.42,1.24-.36,1.66,.13l3.78,4.41c.42,.49,.37,1.24-.13,1.66-.22,.19-.49,.28-.77,.28Z"/><path class="b" d="M73.15,136.28c-.3,0-.61-.12-.84-.35-.46-.46-.45-1.21,0-1.66l8.91-8.81c.46-.46,1.21-.45,1.66,0,.46,.46,.45,1.21,0,1.66l-8.91,8.81c-.23,.23-.53,.34-.83,.34Z"/></g><path class="b" d="M101.62,20.49c-2.2,0-3.98-1.78-3.98-3.98s1.78-3.98,3.98-3.98,3.98,1.78,3.98,3.98-1.78,3.98-3.98,3.98Zm0-5.61c-.9,0-1.63,.73-1.63,1.63s.73,1.63,1.63,1.63,1.63-.73,1.63-1.63-.73-1.63-1.63-1.63Z"/></svg>