<?xml version="1.0" encoding="utf-8"?>
<!-- Generator: Adobe Illustrator 26.1.0, SVG Export Plug-In . SVG Version: 6.00 Build 0)  -->
<svg version="1.1" id="Capa_1" xmlns="http://www.w3.org/2000/svg" xmlns:xlink="http://www.w3.org/1999/xlink" x="0px" y="0px"
	 viewBox="0 0 517 247.1" style="enable-background:new 0 0 517 247.1;" xml:space="preserve">
<style type="text/css">
	.st0{fill:#FFFFFF;}
	.st1{fill:#263168;}
</style>
<g>
	<g>
		<path class="st0" d="M264.4,180.1c-0.3,0-0.6-0.1-0.8-0.3c-0.2-0.2-0.3-0.5-0.3-0.8v-27.6c0-0.3,0.1-0.6,0.3-0.8
			c0.2-0.2,0.5-0.3,0.8-0.3c0.3,0,0.6,0.1,0.8,0.3c0.2,0.2,0.3,0.5,0.3,0.8V179c0,0.3-0.1,0.6-0.3,0.8
			C265,180,264.7,180.1,264.4,180.1z"/>
		<path class="st0" d="M274.3,180.1c-0.3,0-0.6-0.1-0.8-0.3c-0.2-0.2-0.3-0.5-0.3-0.8v-27.6c0-0.3,0.1-0.6,0.3-0.8
			c0.2-0.2,0.5-0.3,0.8-0.3c0.4,0,0.6,0.1,0.9,0.4l19.4,25.3v-24.5c0-0.3,0.1-0.6,0.3-0.8c0.2-0.2,0.5-0.3,0.8-0.3
			c0.3,0,0.6,0.1,0.8,0.3c0.2,0.2,0.3,0.5,0.3,0.8V179c0,0.3-0.1,0.6-0.3,0.8c-0.2,0.2-0.5,0.3-0.8,0.3c-0.2,0-0.3,0-0.5-0.1
			c-0.1-0.1-0.3-0.1-0.4-0.2l-19.5-25.3V179c0,0.3-0.1,0.6-0.3,0.8C274.9,180,274.7,180.1,274.3,180.1z"/>
		<path class="st0" d="M314.2,180.1c-0.5,0-0.8-0.2-1-0.7l-11.5-27.3c-0.2-0.6-0.3-1.1,0-1.4c0.2-0.3,0.6-0.5,1-0.5
			c0.5,0,0.9,0.3,1.1,0.8l11,26.4h-1.1l10.9-26.2c0.1-0.4,0.3-0.6,0.5-0.8s0.5-0.2,0.8-0.2c0.5,0,0.8,0.2,0.9,0.6
			c0.1,0.4,0.1,0.8-0.1,1.3l-11.4,27.3c-0.1,0.3-0.3,0.5-0.5,0.6C314.6,180.1,314.4,180.1,314.2,180.1z"/>
		<path class="st0" d="M332.6,180.1c-0.3,0-0.6-0.1-0.8-0.3c-0.2-0.2-0.3-0.5-0.3-0.8v-27.6c0-0.3,0.1-0.6,0.3-0.8
			c0.2-0.2,0.5-0.3,0.8-0.3H351c0.3,0,0.6,0.1,0.8,0.3c0.2,0.2,0.3,0.5,0.3,0.8c0,0.3-0.1,0.6-0.3,0.8s-0.5,0.3-0.8,0.3h-17.2V164
			h12.7c0.3,0,0.6,0.1,0.8,0.3c0.2,0.2,0.3,0.5,0.3,0.8s-0.1,0.6-0.3,0.8s-0.5,0.3-0.8,0.3h-12.7v11.5H351c0.3,0,0.6,0.1,0.8,0.3
			s0.3,0.5,0.3,0.8c0,0.3-0.1,0.6-0.3,0.8c-0.2,0.2-0.5,0.3-0.8,0.3L332.6,180.1L332.6,180.1z"/>
		<path class="st0" d="M358.8,180.1c-0.3,0-0.6-0.1-0.8-0.3c-0.2-0.2-0.3-0.5-0.3-0.8v-27.6c0-0.3,0.1-0.6,0.3-0.8
			c0.2-0.2,0.5-0.3,0.8-0.3c0.4,0,0.6,0.1,0.9,0.4l19.4,25.3v-24.5c0-0.3,0.1-0.6,0.3-0.8c0.2-0.2,0.5-0.3,0.8-0.3
			c0.3,0,0.6,0.1,0.8,0.3c0.2,0.2,0.3,0.5,0.3,0.8V179c0,0.3-0.1,0.6-0.3,0.8c-0.2,0.2-0.5,0.3-0.8,0.3c-0.2,0-0.3,0-0.5-0.1
			c-0.1-0.1-0.3-0.1-0.4-0.2L360,154.4V179c0,0.3-0.1,0.6-0.3,0.8C359.4,180,359.2,180.1,358.8,180.1z"/>
		<path class="st0" d="M386.9,152.3c-0.3,0-0.5-0.1-0.8-0.3c-0.2-0.2-0.3-0.4-0.3-0.8s0.1-0.6,0.3-0.8s0.4-0.3,0.8-0.3h21.6
			c0.3,0,0.5,0.1,0.8,0.3s0.3,0.4,0.3,0.8s-0.1,0.6-0.3,0.8c-0.2,0.2-0.4,0.3-0.8,0.3H386.9z M397.7,180.1c-0.3,0-0.6-0.1-0.8-0.3
			c-0.2-0.2-0.3-0.5-0.3-0.8v-28.7h2.3V179c0,0.3-0.1,0.6-0.3,0.8C398.3,180,398,180.1,397.7,180.1z"/>
		<path class="st0" d="M427.8,180.5c-2.2,0-4.2-0.4-6.1-1.1c-1.9-0.8-3.5-1.8-4.9-3.2s-2.5-3-3.2-4.9s-1.1-3.9-1.1-6.1
			s0.4-4.2,1.1-6.1c0.8-1.9,1.8-3.5,3.2-4.9s3-2.5,4.9-3.2c1.9-0.8,3.9-1.1,6.1-1.1c2.2,0,4.2,0.4,6.1,1.1c1.9,0.8,3.5,1.8,4.9,3.2
			c1.4,1.4,2.5,3,3.2,4.9c0.8,1.9,1.1,3.9,1.1,6.1s-0.4,4.2-1.1,6.1c-0.8,1.9-1.8,3.5-3.2,4.9s-3,2.5-4.9,3.2
			C432,180.1,430,180.5,427.8,180.5z M427.8,178.2c1.8,0,3.5-0.3,5.1-1s3-1.6,4.1-2.8c1.2-1.2,2.1-2.6,2.8-4.1s1-3.3,1-5.2
			c0-1.8-0.3-3.5-1-5.1c-0.6-1.6-1.6-3-2.8-4.1c-1.2-1.2-2.6-2.1-4.1-2.8s-3.3-1-5.1-1c-1.9,0-3.6,0.3-5.2,1c-1.6,0.6-3,1.6-4.1,2.8
			c-1.2,1.2-2.1,2.6-2.8,4.1c-0.6,1.6-1,3.3-1,5.1c0,1.9,0.3,3.6,1,5.2s1.6,3,2.8,4.1c1.2,1.2,2.6,2.1,4.1,2.8
			S425.9,178.2,427.8,178.2z"/>
		<path class="st0" d="M450.3,180.1c-0.3,0-0.6-0.1-0.8-0.3c-0.2-0.2-0.3-0.5-0.3-0.8v-27.6c0-0.4,0.1-0.6,0.3-0.8s0.5-0.3,0.8-0.3
			h7.3c1.9,0,3.5,0.4,5,1.2s2.6,1.8,3.4,3.2s1.2,2.9,1.2,4.7c0,1.7-0.4,3.3-1.2,4.6c-0.8,1.4-2,2.4-3.4,3.2s-3.1,1.1-5,1.1h-6.2V179
			c0,0.3-0.1,0.6-0.3,0.8C451,180,450.7,180.1,450.3,180.1z M451.5,166h6.2c1.4,0,2.7-0.3,3.8-0.9c1.1-0.6,1.9-1.4,2.6-2.4
			s0.9-2.1,0.9-3.4c0-1.3-0.3-2.5-0.9-3.5s-1.5-1.8-2.6-2.4c-1.1-0.6-2.3-0.9-3.8-0.9h-6.2V166z M466.4,180.1
			c-0.3,0-0.5-0.1-0.6-0.2c-0.1-0.1-0.3-0.3-0.4-0.4l-7.6-12.2l2.4-0.5l7.2,11.6c0.3,0.5,0.4,0.9,0.2,1.3
			C467.4,179.9,467,180.1,466.4,180.1z"/>
		<path class="st0" d="M480.7,180.1c-0.3,0-0.6-0.1-0.8-0.3c-0.2-0.2-0.3-0.5-0.3-0.8v-10L469,152c-0.2-0.3-0.2-0.6-0.2-0.9
			s0.1-0.5,0.3-0.7s0.4-0.3,0.8-0.3c0.2,0,0.4,0,0.5,0.1c0.1,0.1,0.3,0.2,0.4,0.3l10.8,17.5h-1.7l10.6-17.2c0.2-0.3,0.4-0.5,0.5-0.6
			c0.2-0.1,0.4-0.1,0.6-0.1c0.3,0,0.5,0.1,0.7,0.3c0.2,0.2,0.3,0.4,0.3,0.7c0,0.3,0,0.6-0.2,0.8L481.9,169v10c0,0.3-0.1,0.6-0.3,0.8
			S481.1,180.1,480.7,180.1z"/>
	</g>
</g>
<g>
	<g>
		<path class="st0" d="M264.7,83.5c1.1,0,2.1,0.4,2.8,1.2c0.8,0.8,1.1,1.7,1.1,2.8s-0.4,2-1.1,2.8c-0.8,0.8-1.7,1.1-2.8,1.1
			s-2-0.4-2.8-1.1c-0.8-0.7-1.2-1.7-1.2-2.8c0-1.1,0.4-2.1,1.1-2.8C262.7,83.9,263.6,83.5,264.7,83.5z M264.7,96.8
			c0.6,0,1.1,0.2,1.6,0.7s0.7,1,0.7,1.7v42.6c0,0.7-0.2,1.2-0.7,1.7s-1,0.7-1.7,0.7s-1.2-0.2-1.7-0.7s-0.7-1-0.7-1.7V99.2
			c0-0.7,0.2-1.2,0.7-1.7C263.6,97.1,264.1,96.8,264.7,96.8z"/>
		<path class="st0" d="M282.6,126c-0.7,0-1.2-0.2-1.7-0.7s-0.7-1-0.7-1.7v-56c0-0.7,0.2-1.2,0.7-1.7c0.4-0.4,1-0.7,1.7-0.7h37.3
			c0.6,0,1.2,0.2,1.6,0.7c0.5,0.4,0.7,1,0.7,1.7c0,0.6-0.2,1.2-0.7,1.6s-1,0.7-1.6,0.7h-35v23.3h25.7c0.7,0,1.2,0.2,1.7,0.7
			s0.7,1,0.7,1.7s-0.2,1.2-0.7,1.7s-1,0.7-1.7,0.7h-25.7v23.3h35c0.6,0,1.2,0.2,1.6,0.7s0.7,1,0.7,1.6c0,0.7-0.2,1.2-0.7,1.7
			s-1,0.7-1.6,0.7L282.6,126L282.6,126z"/>
		<path class="st0" d="M329.6,126c-1,0-1.7-0.4-2.1-1.2c-0.4-0.8-0.4-1.5,0-2.2L351,67.1c0.4-1.1,1.2-1.6,2.2-1.6
			c1,0,1.8,0.5,2.2,1.6l23.6,55.7c0.4,0.7,0.4,1.5-0.1,2.2s-1.1,1.1-2,1.1c-0.5,0-0.9-0.1-1.3-0.3c-0.3-0.2-0.6-0.6-0.9-1.1
			L352,70.1h2.5l-22.8,54.4c-0.2,0.5-0.5,0.9-0.9,1.1C330.5,125.9,330.1,126,329.6,126z M335.3,110.8l1.9-4.2h32.3l1.8,4.2H335.3z"
			/>
		<path class="st0" d="M406.3,126.8c-3.3,0-6.2-0.4-9-1.4s-5.1-2.2-7-3.9s-3.5-3.7-4.7-5.9c-0.3-0.6-0.3-1.2,0-1.8s0.8-1,1.4-1.2
			c0.6-0.2,1.1-0.2,1.7,0.1c0.6,0.3,1,0.7,1.3,1.2c0.9,1.7,2.2,3.1,3.7,4.3s3.3,2.2,5.4,2.8c2.1,0.7,4.5,1,7.1,1
			c3,0,5.5-0.5,7.6-1.5c2.1-1,3.8-2.4,5-4.3c1.2-1.9,1.8-4.2,1.8-7c0-3.4-1.2-6.3-3.7-8.7c-2.5-2.3-6.2-3.9-11.2-4.5
			c-5.8-0.8-10.3-2.7-13.6-5.6c-3.3-2.9-4.9-6.5-4.9-10.7c0-3.1,0.8-5.7,2.3-8s3.7-4.1,6.4-5.3s6-1.9,9.6-1.9c2.7,0,5.2,0.4,7.5,1.3
			s4.3,2,6,3.4c1.7,1.4,3,2.9,4,4.5c0.4,0.6,0.5,1.2,0.3,1.8c-0.2,0.7-0.6,1.1-1.3,1.4c-0.6,0.2-1.1,0.2-1.7,0
			c-0.6-0.2-1-0.5-1.4-1.1c-0.7-1.1-1.7-2.2-2.8-3.2c-1.1-1-2.6-1.9-4.3-2.6s-3.8-1-6.2-1c-4.2,0-7.6,1-10,2.9
			c-2.4,1.9-3.6,4.6-3.6,8.2c0,1.9,0.5,3.6,1.5,5.1c1,1.5,2.6,2.8,4.8,3.9c2.2,1.1,4.9,1.9,8.3,2.5c6.7,1.1,11.5,3.2,14.4,6.2
			c2.9,3,4.4,6.8,4.4,11.4c0,2.7-0.5,5.1-1.4,7.3c-0.9,2.2-2.2,4-3.9,5.5s-3.7,2.7-6,3.5S409.1,126.8,406.3,126.8z"/>
		<path class="st0" d="M455,126c-0.7,0-1.2-0.2-1.7-0.7s-0.7-1-0.7-1.7v-20.3l-21.4-34.3c-0.4-0.6-0.5-1.2-0.4-1.8
			c0.1-0.5,0.3-1,0.7-1.4s0.9-0.5,1.5-0.5c0.4,0,0.8,0.1,1,0.2c0.3,0.2,0.6,0.4,0.8,0.7l21.8,35.6h-3.4l21.5-35c0.4-0.6,0.7-1,1-1.2
			c0.3-0.2,0.7-0.3,1.2-0.3c0.6,0,1.1,0.2,1.5,0.5c0.4,0.4,0.6,0.8,0.7,1.4c0.1,0.6-0.1,1.1-0.4,1.7l-21.4,34.3v20.3
			c0,0.7-0.2,1.2-0.7,1.7C456.2,125.8,455.6,126,455,126z"/>
		<path class="st0" d="M487.3,126c-1.1,0-2.1-0.4-2.8-1.1c-0.8-0.8-1.1-1.7-1.1-2.8c0-1.1,0.4-2.1,1.2-2.8c0.8-0.7,1.7-1.1,2.8-1.1
			s2,0.4,2.8,1.1s1.1,1.7,1.1,2.8s-0.4,2-1.1,2.8C489.3,125.7,488.4,126,487.3,126z M487.3,112.7c-0.6,0-1.2-0.2-1.7-0.7
			c-0.5-0.4-0.7-1-0.7-1.7V67.7c0-0.7,0.2-1.3,0.7-1.8s1-0.7,1.7-0.7c0.7,0,1.2,0.2,1.7,0.7s0.7,1,0.7,1.8v42.6
			c0,0.7-0.2,1.2-0.7,1.7C488.4,112.5,487.9,112.7,487.3,112.7z"/>
	</g>
</g>
<circle class="st0" cx="123.2" cy="123.5" r="96"/>
<g>
	<g>
		<path class="st1" d="M162,180.5H84.4c-2,0-3.7-1.7-3.7-3.7V74.2c0-2.1,1.7-3.7,3.7-3.7h31V72h-31c-1.2,0-2.2,1-2.2,2.2v102.6
			c0,1.2,1,2.2,2.2,2.2H162c1.2,0,2.2-1,2.2-2.2V74.2c0-1.2-1-2.2-2.2-2.2h-31v-1.5h31c2,0,3.7,1.7,3.7,3.7v102.6
			C165.7,178.8,164,180.5,162,180.5z"/>
	</g>
	<g>
		<path class="st1" d="M154.4,170.7H92c-2.1,0-3.8-1.7-3.8-3.8V84.1c0-2.1,1.7-3.8,3.8-3.8h18.3v1.5H92c-1.2,0-2.2,1-2.2,2.2v82.8
			c0,1.2,1,2.2,2.2,2.2h62.4c1.2,0,2.2-1,2.2-2.2V84.1c0-1.2-1-2.2-2.2-2.2h-18.3v-1.5h18.3c2.1,0,3.8,1.7,3.8,3.8v82.8
			C158.1,169,156.4,170.7,154.4,170.7z"/>
	</g>
	<g>
		<path class="st1" d="M120.1,83.8h-9.3c-0.7,0-1.2-0.5-1.2-1.2v-3c0-3.4,2.8-6.2,6.2-6.2c0.4,0,0.8,0.3,0.8,0.8s-0.3,0.8-0.8,0.8
			c-2.6,0-4.7,2.1-4.7,4.7v2.7h9c0.4,0,0.8,0.3,0.8,0.8S120.5,83.8,120.1,83.8z"/>
	</g>
	<g>
		<path class="st1" d="M135.7,83.8h-9.8c-0.4,0-0.8-0.3-0.8-0.8s0.3-0.8,0.8-0.8h9.4v-2.7c0-2.6-2.1-4.7-4.7-4.7
			c-0.4,0-0.8-0.3-0.8-0.8s0.3-0.8,0.8-0.8c3.4,0,6.2,2.8,6.2,6.2v3C136.8,83.2,136.3,83.8,135.7,83.8z"/>
	</g>
	<g>
		<path class="st1" d="M132,74.9h-1.3v-0.8h-0.2v-1.4c0-2.6-2.1-4.7-4.7-4.7h-5.1c-2.6,0-4.7,2.1-4.7,4.7v1.4h-0.2v0.8h-1.3v-2.1
			c0-3.4,2.8-6.2,6.2-6.2h5.1c3.4,0,6.2,2.8,6.2,6.2V74.9z"/>
	</g>
	<g>
		<path class="st1" d="M104.3,113.6c-2.6,0-4.6-2.1-4.6-4.6s2.1-4.6,4.6-4.6s4.6,2.1,4.6,4.6S106.9,113.6,104.3,113.6z M104.3,105.8
			c-1.7,0-3.1,1.4-3.1,3.1s1.4,3.1,3.1,3.1s3.1-1.4,3.1-3.1S106,105.8,104.3,105.8z"/>
	</g>
	<g>
		<path class="st1" d="M104.3,133.2c-2.6,0-4.6-2.1-4.6-4.6s2.1-4.6,4.6-4.6s4.6,2.1,4.6,4.6C108.9,131.1,106.9,133.2,104.3,133.2z
			 M104.3,125.4c-1.7,0-3.1,1.4-3.1,3.1s1.4,3.1,3.1,3.1s3.1-1.4,3.1-3.1S106,125.4,104.3,125.4z"/>
	</g>
	<g>
		<path class="st1" d="M104.3,152.9c-2.6,0-4.6-2.1-4.6-4.6s2.1-4.6,4.6-4.6s4.6,2.1,4.6,4.6S106.9,152.9,104.3,152.9z M104.3,145.1
			c-1.7,0-3.1,1.4-3.1,3.1s1.4,3.1,3.1,3.1s3.1-1.4,3.1-3.1S106,145.1,104.3,145.1z"/>
	</g>
	<g>
		<path class="st1" d="M146.2,109.7h-33.1c-0.4,0-0.8-0.3-0.8-0.8s0.3-0.8,0.8-0.8h33.1c0.4,0,0.8,0.3,0.8,0.8
			S146.6,109.7,146.2,109.7z"/>
	</g>
	<g>
		<path class="st1" d="M146.2,129.3h-33.1c-0.4,0-0.8-0.3-0.8-0.8s0.3-0.8,0.8-0.8h33.1c0.4,0,0.8,0.3,0.8,0.8
			S146.6,129.3,146.2,129.3z"/>
	</g>
	<g>
		<path class="st1" d="M146.2,149h-33.1c-0.4,0-0.8-0.3-0.8-0.8s0.3-0.8,0.8-0.8h33.1c0.4,0,0.8,0.3,0.8,0.8S146.6,149,146.2,149z"
			/>
	</g>
	<g>
		<g>
			<path class="st1" d="M104.7,111.4c-0.2,0-0.4-0.1-0.6-0.3l-2.4-2.8c-0.3-0.3-0.2-0.8,0.1-1.1c0.3-0.3,0.8-0.2,1.1,0.1l2.4,2.8
				c0.3,0.3,0.2,0.8-0.1,1.1C105,111.3,104.8,111.4,104.7,111.4z"/>
		</g>
		<g>
			<path class="st1" d="M104.7,111.4c-0.2,0-0.4-0.1-0.5-0.2c-0.3-0.3-0.3-0.8,0-1.1l5.7-5.6c0.3-0.3,0.8-0.3,1.1,0s0.3,0.8,0,1.1
				l-5.7,5.6C105,111.3,104.8,111.4,104.7,111.4z"/>
		</g>
	</g>
	<g>
		<g>
			<path class="st1" d="M105,130.7c-0.2,0-0.4-0.1-0.6-0.3l-2.4-2.8c-0.3-0.3-0.2-0.8,0.1-1.1c0.3-0.3,0.8-0.2,1.1,0.1l2.4,2.8
				c0.3,0.3,0.2,0.8-0.1,1.1C105.3,130.7,105.2,130.7,105,130.7z"/>
		</g>
		<g>
			<path class="st1" d="M105,130.7c-0.2,0-0.4-0.1-0.5-0.2c-0.3-0.3-0.3-0.8,0-1.1l5.7-5.6c0.3-0.3,0.8-0.3,1.1,0s0.3,0.8,0,1.1
				l-5.7,5.6C105.4,130.6,105.2,130.7,105,130.7z"/>
		</g>
	</g>
	<g>
		<g>
			<path class="st1" d="M105.1,150.7c-0.2,0-0.4-0.1-0.6-0.3l-2.4-2.8c-0.3-0.3-0.2-0.8,0.1-1.1c0.3-0.3,0.8-0.2,1.1,0.1l2.4,2.8
				c0.3,0.3,0.2,0.8-0.1,1.1C105.4,150.7,105.2,150.7,105.1,150.7z"/>
		</g>
		<g>
			<path class="st1" d="M105.1,150.7c-0.2,0-0.4-0.1-0.5-0.2c-0.3-0.3-0.3-0.8,0-1.1l5.7-5.6c0.3-0.3,0.8-0.3,1.1,0
				c0.3,0.3,0.3,0.8,0,1.1l-5.7,5.6C105.4,150.6,105.2,150.7,105.1,150.7z"/>
		</g>
	</g>
	<g>
		<path class="st1" d="M123.2,76.9c-1.4,0-2.5-1.1-2.5-2.5s1.1-2.5,2.5-2.5s2.5,1.1,2.5,2.5S124.6,76.9,123.2,76.9z M123.2,73.3
			c-0.6,0-1,0.5-1,1s0.5,1,1,1s1-0.5,1-1S123.8,73.3,123.2,73.3z"/>
	</g>
</g>
</svg>
