<?xml version="1.0" encoding="UTF-8"?><svg id="a" xmlns="http://www.w3.org/2000/svg" viewBox="0 0 199.16 190.47"><defs><style>.b{fill:#263168;}.c{fill:#909dcf;}</style></defs><circle class="b" cx="100.91" cy="92.94" r="87.83"/><g><path class="c" d="M136.4,145.05H65.41c-1.87,0-3.38-1.52-3.38-3.38V47.85c0-1.87,1.52-3.39,3.38-3.39h28.36v1.37h-28.36c-1.11,0-2.01,.91-2.01,2.02v93.82c0,1.11,.9,2.01,2.01,2.01h70.99c1.11,0,2.01-.9,2.01-2.01V47.85c0-1.12-.9-2.02-2.01-2.02h-28.35v-1.37h28.35c1.87,0,3.38,1.52,3.38,3.39v93.82c0,1.87-1.52,3.38-3.38,3.38Z"/><path class="c" d="M129.43,136.06h-57.04c-1.89,0-3.43-1.54-3.43-3.43V56.88c0-1.89,1.54-3.43,3.43-3.43h16.74v1.37h-16.74c-1.13,0-2.06,.92-2.06,2.06v75.75c0,1.13,.92,2.06,2.06,2.06h57.04c1.13,0,2.06-.92,2.06-2.06V56.88c0-1.13-.92-2.06-2.06-2.06h-16.74v-1.37h16.74c1.89,0,3.43,1.54,3.43,3.43v75.75c0,1.89-1.54,3.43-3.43,3.43Z"/><path class="c" d="M98.07,56.56h-8.55c-.59,0-1.08-.48-1.08-1.07v-2.78c0-3.13,2.55-5.67,5.67-5.67,.38,0,.69,.31,.69,.69s-.31,.69-.69,.69c-2.37,0-4.3,1.93-4.3,4.3v2.47h8.26c.38,0,.69,.31,.69,.69s-.31,.69-.69,.69Z"/><path class="c" d="M112.31,56.56h-8.95c-.38,0-.69-.31-.69-.69s.31-.69,.69-.69h8.65v-2.47c0-2.37-1.93-4.3-4.29-4.3-.38,0-.69-.31-.69-.69s.31-.69,.69-.69c3.13,0,5.67,2.55,5.67,5.67v2.77c0,.59-.48,1.07-1.07,1.07Z"/><path class="c" d="M108.92,48.41h-1.22v-.69h-.16v-1.24c0-2.37-1.93-4.29-4.29-4.29h-4.69c-2.37,0-4.29,1.93-4.29,4.29v1.24h-.16v.69h-1.22v-1.93c0-3.13,2.54-5.67,5.67-5.67h4.69c3.13,0,5.67,2.54,5.67,5.67v1.93Z"/><path class="c" d="M83.62,83.82c-2.34,0-4.24-1.9-4.24-4.24s1.9-4.24,4.24-4.24,4.24,1.9,4.24,4.24-1.9,4.24-4.24,4.24Zm0-7.1c-1.58,0-2.87,1.29-2.87,2.87s1.29,2.87,2.87,2.87,2.87-1.29,2.87-2.87-1.29-2.87-2.87-2.87Z"/><path class="c" d="M83.62,101.8c-2.34,0-4.24-1.9-4.24-4.24s1.9-4.24,4.24-4.24,4.24,1.9,4.24,4.24-1.9,4.24-4.24,4.24Zm0-7.1c-1.58,0-2.87,1.29-2.87,2.87s1.29,2.86,2.87,2.86,2.87-1.28,2.87-2.86-1.29-2.87-2.87-2.87Z"/><path class="c" d="M83.62,119.79c-2.34,0-4.24-1.9-4.24-4.24s1.9-4.24,4.24-4.24,4.24,1.9,4.24,4.24-1.9,4.24-4.24,4.24Zm0-7.1c-1.58,0-2.87,1.28-2.87,2.86s1.29,2.87,2.87,2.87,2.87-1.29,2.87-2.87-1.29-2.86-2.87-2.86Z"/><path class="c" d="M121.93,80.27h-30.25c-.38,0-.69-.31-.69-.69s.31-.69,.69-.69h30.25c.38,0,.69,.31,.69,.69s-.31,.69-.69,.69Z"/><path class="c" d="M121.93,98.25h-30.25c-.38,0-.69-.31-.69-.69s.31-.69,.69-.69h30.25c.38,0,.69,.31,.69,.69s-.31,.69-.69,.69Z"/><path class="c" d="M121.93,116.24h-30.25c-.38,0-.69-.31-.69-.69s.31-.69,.69-.69h30.25c.38,0,.69,.31,.69,.69s-.31,.69-.69,.69Z"/><g><path class="c" d="M83.93,81.85c-.19,0-.39-.08-.52-.24l-2.2-2.57c-.25-.29-.21-.72,.07-.97,.29-.25,.72-.21,.97,.07l2.2,2.57c.25,.29,.21,.72-.07,.97-.13,.11-.29,.17-.45,.17Z"/><path class="c" d="M83.93,81.85c-.18,0-.35-.07-.49-.2-.27-.27-.26-.7,0-.97l5.2-5.14c.27-.27,.7-.26,.97,0s.26,.7,0,.97l-5.2,5.14c-.13,.13-.31,.2-.48,.2Z"/></g><g><path class="c" d="M84.25,99.52c-.19,0-.39-.08-.52-.24l-2.21-2.57c-.25-.29-.21-.72,.07-.97,.29-.24,.72-.21,.97,.07l2.21,2.57c.25,.29,.21,.72-.07,.97-.13,.11-.29,.17-.45,.17Z"/><path class="c" d="M84.25,99.52c-.18,0-.35-.07-.49-.2-.27-.27-.26-.7,0-.97l5.2-5.14c.27-.27,.7-.26,.97,0s.26,.7,0,.97l-5.2,5.14c-.13,.13-.31,.2-.48,.2Z"/></g><g><path class="c" d="M84.31,117.82c-.19,0-.39-.08-.52-.24l-2.2-2.57c-.25-.29-.21-.72,.07-.97,.29-.25,.72-.21,.97,.07l2.2,2.57c.25,.29,.21,.72-.07,.97-.13,.11-.29,.17-.45,.17Z"/><path class="c" d="M84.31,117.82c-.18,0-.35-.07-.49-.2-.27-.27-.26-.7,0-.97l5.2-5.14c.27-.27,.7-.26,.97,0,.27,.27,.26,.7,0,.97l-5.2,5.14c-.13,.13-.31,.2-.48,.2Z"/></g><path class="c" d="M100.91,50.29c-1.28,0-2.32-1.04-2.32-2.32s1.04-2.32,2.32-2.32,2.32,1.04,2.32,2.32-1.04,2.32-2.32,2.32Zm0-3.27c-.52,0-.95,.43-.95,.95s.43,.95,.95,.95,.95-.43,.95-.95-.43-.95-.95-.95Z"/></g></svg>