<?xml version="1.0" encoding="utf-8"?>
<!-- Generator: Adobe Illustrator 26.1.0, SVG Export Plug-In . SVG Version: 6.00 Build 0)  -->
<svg version="1.1" id="Capa_1" xmlns="http://www.w3.org/2000/svg" xmlns:xlink="http://www.w3.org/1999/xlink" x="0px" y="0px"
	 viewBox="0 0 517.02 247.05" style="enable-background:new 0 0 517.02 247.05;" xml:space="preserve">
<style type="text/css">
	.st0{fill:#263168;}
	.st1{fill:#909DCF;}
	.st2{fill:#40476C;}
	.st3{fill:none;stroke:#000000;stroke-width:1.5;stroke-miterlimit:10;}
	.st4{fill:none;stroke:#000000;stroke-width:1.5;stroke-linecap:round;stroke-miterlimit:10;}
	.st5{fill:#374C9C;}
	.st6{fill:#71B53C;}
</style>
<g>
	<g>
		<path class="st2" d="M264.39,180.12c-0.33,0-0.61-0.11-0.82-0.33c-0.22-0.22-0.33-0.49-0.33-0.82v-27.58
			c0-0.33,0.11-0.61,0.33-0.82c0.22-0.22,0.49-0.33,0.82-0.33c0.33,0,0.61,0.11,0.82,0.33c0.22,0.22,0.33,0.49,0.33,0.82v27.58
			c0,0.33-0.11,0.61-0.33,0.82C265,180.01,264.72,180.12,264.39,180.12z"/>
		<path class="st2" d="M274.34,180.12c-0.33,0-0.61-0.11-0.82-0.33c-0.22-0.22-0.33-0.49-0.33-0.82v-27.58
			c0-0.33,0.11-0.61,0.33-0.82c0.22-0.22,0.49-0.33,0.82-0.33c0.36,0,0.65,0.13,0.88,0.38l19.43,25.28v-24.52
			c0-0.33,0.11-0.61,0.33-0.82c0.22-0.22,0.49-0.33,0.82-0.33c0.31,0,0.57,0.11,0.8,0.33c0.23,0.22,0.34,0.49,0.34,0.82v27.58
			c0,0.33-0.12,0.61-0.34,0.82c-0.23,0.22-0.5,0.33-0.8,0.33c-0.18,0-0.34-0.03-0.48-0.1c-0.14-0.06-0.26-0.15-0.36-0.25
			l-19.47-25.32v24.52c0,0.33-0.11,0.61-0.33,0.82C274.94,180.01,274.67,180.12,274.34,180.12z"/>
		<path class="st2" d="M314.23,180.12c-0.48,0-0.83-0.24-1.03-0.73l-11.48-27.27c-0.25-0.59-0.26-1.05-0.02-1.38
			c0.24-0.33,0.58-0.5,1.01-0.5c0.48,0,0.85,0.27,1.11,0.8l11.02,26.35h-1.11l10.86-26.2c0.13-0.36,0.29-0.6,0.5-0.75
			s0.46-0.21,0.77-0.21c0.46,0,0.76,0.19,0.92,0.57c0.15,0.38,0.13,0.82-0.08,1.3l-11.44,27.27c-0.13,0.28-0.29,0.47-0.48,0.57
			C314.6,180.07,314.41,180.12,314.23,180.12z"/>
		<path class="st2" d="M332.59,180.12c-0.33,0-0.61-0.11-0.82-0.33c-0.22-0.22-0.33-0.49-0.33-0.82v-27.58
			c0-0.33,0.11-0.61,0.33-0.82c0.22-0.22,0.49-0.33,0.82-0.33h18.4c0.31,0,0.57,0.11,0.8,0.33c0.23,0.22,0.34,0.49,0.34,0.82
			c0,0.31-0.11,0.57-0.34,0.8s-0.5,0.34-0.8,0.34h-17.25v11.48h12.66c0.33,0,0.61,0.11,0.82,0.33c0.22,0.22,0.33,0.49,0.33,0.82
			c0,0.33-0.11,0.61-0.33,0.84c-0.22,0.23-0.49,0.34-0.82,0.34h-12.66v11.48h17.25c0.31,0,0.57,0.11,0.8,0.34s0.34,0.5,0.34,0.8
			c0,0.33-0.11,0.61-0.34,0.82c-0.23,0.22-0.5,0.33-0.8,0.33H332.59z"/>
		<path class="st2" d="M358.83,180.12c-0.33,0-0.61-0.11-0.82-0.33c-0.22-0.22-0.33-0.49-0.33-0.82v-27.58
			c0-0.33,0.11-0.61,0.33-0.82c0.22-0.22,0.49-0.33,0.82-0.33c0.36,0,0.65,0.13,0.88,0.38l19.43,25.28v-24.52
			c0-0.33,0.11-0.61,0.33-0.82c0.22-0.22,0.49-0.33,0.82-0.33c0.31,0,0.57,0.11,0.8,0.33c0.23,0.22,0.34,0.49,0.34,0.82v27.58
			c0,0.33-0.12,0.61-0.34,0.82c-0.23,0.22-0.5,0.33-0.8,0.33c-0.18,0-0.34-0.03-0.48-0.1c-0.14-0.06-0.26-0.15-0.36-0.25
			l-19.47-25.32v24.52c0,0.33-0.11,0.61-0.33,0.82C359.44,180.01,359.17,180.12,358.83,180.12z"/>
		<path class="st2" d="M386.87,152.31c-0.31,0-0.55-0.1-0.75-0.29c-0.19-0.19-0.29-0.44-0.29-0.75c0-0.31,0.09-0.55,0.29-0.75
			s0.44-0.29,0.75-0.29h21.65c0.31,0,0.55,0.1,0.75,0.29s0.29,0.44,0.29,0.75c0,0.31-0.1,0.55-0.29,0.75
			c-0.19,0.19-0.44,0.29-0.75,0.29H386.87z M397.7,180.12c-0.33,0-0.61-0.11-0.82-0.33c-0.22-0.22-0.33-0.49-0.33-0.82v-28.73h2.29
			v28.73c0,0.33-0.11,0.61-0.33,0.82C398.3,180.01,398.03,180.12,397.7,180.12z"/>
		<path class="st2" d="M427.76,180.5c-2.19,0-4.22-0.38-6.08-1.15c-1.86-0.77-3.49-1.84-4.88-3.23c-1.39-1.39-2.47-3.02-3.23-4.88
			c-0.76-1.86-1.15-3.89-1.15-6.08c0-2.19,0.38-4.21,1.15-6.06c0.77-1.85,1.84-3.47,3.23-4.86c1.39-1.39,3.02-2.47,4.88-3.23
			c1.86-0.77,3.89-1.15,6.08-1.15c2.19,0,4.21,0.38,6.06,1.15c1.85,0.76,3.47,1.84,4.86,3.23c1.39,1.39,2.47,3.01,3.23,4.86
			c0.77,1.85,1.15,3.87,1.15,6.06c0,2.19-0.38,4.22-1.15,6.08c-0.76,1.86-1.84,3.49-3.23,4.88s-3.01,2.47-4.86,3.23
			C431.97,180.12,429.95,180.5,427.76,180.5z M427.76,178.21c1.84,0,3.54-0.33,5.12-0.98s2.96-1.57,4.15-2.75
			c1.19-1.19,2.1-2.57,2.75-4.15s0.98-3.3,0.98-5.16c0-1.84-0.33-3.54-0.98-5.13c-0.65-1.58-1.57-2.96-2.75-4.15
			c-1.19-1.19-2.57-2.1-4.15-2.75c-1.58-0.65-3.29-0.98-5.12-0.98c-1.86,0-3.58,0.33-5.16,0.98c-1.58,0.65-2.96,1.57-4.15,2.75
			c-1.19,1.19-2.1,2.57-2.75,4.15c-0.65,1.58-0.98,3.29-0.98,5.13c0,1.86,0.33,3.58,0.98,5.16s1.57,2.96,2.75,4.15
			c1.19,1.19,2.57,2.1,4.15,2.75S425.9,178.21,427.76,178.21z"/>
		<path class="st2" d="M450.33,180.12c-0.33,0-0.61-0.11-0.82-0.33c-0.22-0.22-0.33-0.49-0.33-0.82v-27.58
			c0-0.36,0.11-0.64,0.33-0.84c0.22-0.2,0.49-0.31,0.82-0.31h7.31c1.86,0,3.51,0.39,4.95,1.17c1.44,0.78,2.57,1.84,3.39,3.19
			c0.82,1.35,1.22,2.92,1.22,4.7c0,1.73-0.41,3.28-1.22,4.63c-0.82,1.35-1.95,2.41-3.39,3.17c-1.44,0.76-3.09,1.15-4.95,1.15h-6.16
			v10.71c0,0.33-0.1,0.61-0.31,0.82C450.96,180.01,450.68,180.12,450.33,180.12z M451.48,165.97h6.16c1.43,0,2.68-0.29,3.77-0.86
			c1.08-0.57,1.94-1.36,2.56-2.35c0.62-0.99,0.94-2.14,0.94-3.44c0-1.33-0.31-2.5-0.94-3.52c-0.63-1.02-1.48-1.82-2.56-2.39
			c-1.08-0.57-2.34-0.86-3.77-0.86h-6.16V165.97z M466.39,180.12c-0.28,0-0.49-0.06-0.63-0.17c-0.14-0.12-0.27-0.26-0.4-0.44
			l-7.61-12.16l2.37-0.54l7.23,11.55c0.33,0.51,0.4,0.93,0.21,1.26C467.37,179.95,466.98,180.12,466.39,180.12z"/>
		<path class="st2" d="M480.74,180.12c-0.33,0-0.61-0.11-0.82-0.33c-0.22-0.22-0.33-0.49-0.33-0.82v-10.02l-10.56-16.91
			c-0.18-0.31-0.25-0.59-0.21-0.86c0.04-0.27,0.15-0.49,0.34-0.67c0.19-0.18,0.44-0.27,0.75-0.27c0.2,0,0.38,0.04,0.52,0.12
			c0.14,0.08,0.27,0.19,0.4,0.34l10.75,17.52h-1.68l10.59-17.25c0.18-0.28,0.35-0.47,0.52-0.57c0.17-0.1,0.36-0.15,0.59-0.15
			c0.31,0,0.55,0.09,0.73,0.27c0.18,0.18,0.29,0.41,0.33,0.69c0.04,0.28-0.03,0.56-0.21,0.84l-10.56,16.91v10.02
			c0,0.33-0.11,0.61-0.33,0.82C481.34,180.01,481.07,180.12,480.74,180.12z"/>
	</g>
</g>
<g>
	<g>
		<path class="st2" d="M264.67,83.5c1.14,0,2.08,0.39,2.83,1.16c0.75,0.78,1.12,1.71,1.12,2.79s-0.38,2.01-1.12,2.76
			c-0.75,0.75-1.67,1.13-2.76,1.13s-2.02-0.36-2.79-1.09c-0.78-0.72-1.16-1.66-1.16-2.79c0-1.14,0.38-2.08,1.13-2.83
			C262.66,83.87,263.58,83.5,264.67,83.5z M264.74,96.85c0.57,0,1.1,0.22,1.59,0.66c0.49,0.44,0.74,1,0.74,1.67v42.62
			c0,0.67-0.22,1.24-0.66,1.71c-0.44,0.47-1,0.7-1.67,0.7s-1.24-0.23-1.71-0.7s-0.7-1.04-0.7-1.71V99.18c0-0.67,0.25-1.23,0.74-1.67
			C263.57,97.07,264.12,96.85,264.74,96.85z"/>
		<path class="st2" d="M282.6,126.04c-0.67,0-1.23-0.22-1.67-0.66c-0.44-0.44-0.66-1-0.66-1.67V67.74c0-0.67,0.22-1.23,0.66-1.67
			c0.44-0.44,1-0.66,1.67-0.66h37.34c0.62,0,1.17,0.22,1.63,0.66c0.47,0.44,0.7,1,0.7,1.67c0,0.62-0.23,1.16-0.7,1.63
			s-1.01,0.7-1.63,0.7h-35.01v23.29h25.7c0.67,0,1.23,0.22,1.67,0.66c0.44,0.44,0.66,1,0.66,1.67c0,0.67-0.22,1.24-0.66,1.71
			c-0.44,0.47-1,0.7-1.67,0.7h-25.7v23.29h35.01c0.62,0,1.17,0.23,1.63,0.7s0.7,1.01,0.7,1.63c0,0.67-0.23,1.23-0.7,1.67
			s-1.01,0.66-1.63,0.66H282.6z"/>
		<path class="st2" d="M329.57,126.04c-0.98,0-1.67-0.39-2.06-1.16c-0.39-0.78-0.4-1.5-0.04-2.17l23.52-55.66
			c0.41-1.09,1.16-1.63,2.25-1.63c1.04,0,1.79,0.54,2.25,1.63l23.6,55.66c0.41,0.73,0.39,1.46-0.08,2.21
			c-0.47,0.75-1.14,1.12-2.02,1.12c-0.52,0-0.94-0.12-1.28-0.35c-0.34-0.23-0.63-0.61-0.89-1.13L352,70.14h2.48l-22.75,54.42
			c-0.21,0.52-0.49,0.89-0.85,1.13C330.52,125.93,330.08,126.04,329.57,126.04z M335.31,110.83l1.86-4.19h32.3l1.79,4.19H335.31z"/>
		<path class="st2" d="M406.27,126.82c-3.26,0-6.25-0.45-8.97-1.36c-2.72-0.91-5.06-2.2-7.03-3.88c-1.97-1.68-3.52-3.66-4.66-5.94
			c-0.31-0.62-0.32-1.22-0.04-1.79c0.28-0.57,0.76-0.96,1.44-1.16c0.57-0.21,1.14-0.18,1.71,0.08c0.57,0.26,1.01,0.67,1.32,1.24
			c0.93,1.66,2.16,3.11,3.69,4.35c1.53,1.24,3.34,2.19,5.43,2.83c2.1,0.65,4.46,0.97,7.1,0.97c2.95,0,5.5-0.49,7.65-1.48
			c2.15-0.98,3.8-2.43,4.97-4.35c1.16-1.91,1.75-4.24,1.75-6.99c0-3.42-1.23-6.3-3.69-8.66c-2.46-2.35-6.2-3.87-11.22-4.54
			c-5.8-0.83-10.33-2.7-13.59-5.63c-3.26-2.92-4.89-6.48-4.89-10.67c0-3.05,0.76-5.72,2.29-8c1.53-2.28,3.67-4.05,6.44-5.32
			c2.77-1.27,5.96-1.9,9.59-1.9c2.69,0,5.17,0.44,7.45,1.32c2.28,0.88,4.27,2.03,5.98,3.45c1.71,1.42,3.03,2.91,3.96,4.46
			c0.36,0.57,0.45,1.18,0.27,1.82c-0.18,0.65-0.61,1.1-1.28,1.36c-0.57,0.21-1.14,0.22-1.71,0.04c-0.57-0.18-1.04-0.53-1.4-1.05
			c-0.73-1.09-1.66-2.15-2.79-3.18c-1.14-1.03-2.56-1.89-4.27-2.56c-1.71-0.67-3.78-1.01-6.21-1.01c-4.25,0-7.58,0.96-10.01,2.87
			c-2.43,1.92-3.65,4.63-3.65,8.15c0,1.86,0.5,3.56,1.51,5.08c1.01,1.53,2.6,2.83,4.77,3.92c2.17,1.09,4.94,1.92,8.31,2.48
			c6.68,1.14,11.48,3.2,14.4,6.17c2.92,2.98,4.39,6.77,4.39,11.37c0,2.69-0.45,5.12-1.36,7.3c-0.91,2.17-2.2,4.01-3.88,5.51
			c-1.68,1.5-3.69,2.65-6.02,3.46S409.11,126.82,406.27,126.82z"/>
		<path class="st2" d="M454.95,126.04c-0.67,0-1.23-0.22-1.67-0.66c-0.44-0.44-0.66-1-0.66-1.67v-20.34l-21.43-34.31
			c-0.36-0.62-0.5-1.2-0.43-1.75c0.08-0.54,0.31-1,0.7-1.36c0.39-0.36,0.89-0.54,1.51-0.54c0.41,0,0.76,0.08,1.05,0.23
			c0.28,0.16,0.56,0.39,0.82,0.7l21.82,35.56h-3.42l21.5-35.01c0.36-0.57,0.71-0.96,1.05-1.16c0.34-0.21,0.74-0.31,1.2-0.31
			c0.62,0,1.11,0.18,1.48,0.54c0.36,0.36,0.58,0.83,0.66,1.4c0.08,0.57-0.07,1.14-0.43,1.71l-21.43,34.31v20.34
			c0,0.67-0.22,1.23-0.66,1.67C456.17,125.82,455.62,126.04,454.95,126.04z"/>
		<path class="st2" d="M487.32,126.04c-1.14,0-2.08-0.38-2.83-1.12c-0.75-0.75-1.13-1.7-1.13-2.83c0-1.14,0.39-2.07,1.16-2.79
			c0.78-0.72,1.71-1.09,2.79-1.09s2.01,0.38,2.76,1.13c0.75,0.75,1.13,1.67,1.13,2.76s-0.38,2.02-1.13,2.8
			C489.32,125.65,488.41,126.04,487.32,126.04z M487.32,112.69c-0.62,0-1.18-0.22-1.67-0.66c-0.49-0.44-0.74-1-0.74-1.67V67.74
			c0-0.72,0.23-1.31,0.7-1.75c0.47-0.44,1.04-0.66,1.71-0.66c0.67,0,1.23,0.22,1.67,0.66c0.44,0.44,0.66,1.02,0.66,1.75v42.62
			c0,0.67-0.25,1.23-0.74,1.67C488.42,112.47,487.89,112.69,487.32,112.69z"/>
	</g>
</g>
<circle class="st0" cx="123.2" cy="123.52" r="96"/>
<g>
	<g>
		<path class="st1" d="M162,180.49H84.41c-2.04,0-3.7-1.66-3.7-3.7V74.24c0-2.05,1.66-3.71,3.7-3.71h31v1.5h-31
			c-1.21,0-2.2,0.99-2.2,2.21v102.55c0,1.21,0.99,2.2,2.2,2.2H162c1.21,0,2.2-0.99,2.2-2.2V74.24c0-1.22-0.99-2.21-2.2-2.21h-30.99
			v-1.5H162c2.04,0,3.7,1.66,3.7,3.71v102.55C165.7,178.83,164.04,180.49,162,180.49z"/>
	</g>
	<g>
		<path class="st1" d="M154.38,170.66H92.03c-2.07,0-3.75-1.68-3.75-3.75v-82.8c0-2.07,1.68-3.75,3.75-3.75h18.3v1.5h-18.3
			c-1.24,0-2.25,1.01-2.25,2.25v82.8c0,1.24,1.01,2.25,2.25,2.25h62.35c1.24,0,2.25-1.01,2.25-2.25v-82.8
			c0-1.24-1.01-2.25-2.25-2.25h-18.3v-1.5h18.3c2.07,0,3.75,1.68,3.75,3.75v82.8C158.13,168.98,156.45,170.66,154.38,170.66z"/>
	</g>
	<g>
		<path class="st1" d="M120.11,83.76h-9.35c-0.65,0-1.18-0.52-1.18-1.17v-3.04c0-3.42,2.78-6.2,6.2-6.2c0.41,0,0.75,0.34,0.75,0.75
			s-0.34,0.75-0.75,0.75c-2.59,0-4.7,2.11-4.7,4.7v2.7h9.03c0.41,0,0.75,0.34,0.75,0.75S120.52,83.76,120.11,83.76z"/>
	</g>
	<g>
		<path class="st1" d="M135.66,83.76h-9.78c-0.41,0-0.75-0.34-0.75-0.75s0.34-0.75,0.75-0.75h9.45v-2.7c0-2.59-2.11-4.7-4.69-4.7
			c-0.41,0-0.75-0.34-0.75-0.75s0.34-0.75,0.75-0.75c3.42,0,6.19,2.78,6.19,6.2v3.03C136.83,83.24,136.31,83.76,135.66,83.76z"/>
	</g>
	<g>
		<path class="st1" d="M131.97,74.86h-1.33v-0.75h-0.17v-1.36c0-2.59-2.11-4.69-4.69-4.69h-5.13c-2.59,0-4.69,2.11-4.69,4.69v1.36
			h-0.17v0.75h-1.33v-2.11c0-3.42,2.78-6.19,6.19-6.19h5.13c3.42,0,6.19,2.78,6.19,6.19V74.86z"/>
	</g>
	<g>
		<path class="st1" d="M104.31,113.56c-2.55,0-4.63-2.08-4.63-4.63s2.08-4.63,4.63-4.63s4.63,2.08,4.63,4.63
			S106.87,113.56,104.31,113.56z M104.31,105.79c-1.73,0-3.13,1.41-3.13,3.13s1.41,3.13,3.13,3.13s3.13-1.41,3.13-3.13
			S106.04,105.79,104.31,105.79z"/>
	</g>
	<g>
		<path class="st1" d="M104.31,133.21c-2.55,0-4.63-2.08-4.63-4.63s2.08-4.63,4.63-4.63s4.63,2.08,4.63,4.63
			S106.87,133.21,104.31,133.21z M104.31,125.45c-1.73,0-3.13,1.41-3.13,3.13s1.41,3.13,3.13,3.13s3.13-1.4,3.13-3.13
			S106.04,125.45,104.31,125.45z"/>
	</g>
	<g>
		<path class="st1" d="M104.31,152.87c-2.55,0-4.63-2.08-4.63-4.63s2.08-4.63,4.63-4.63s4.63,2.08,4.63,4.63
			S106.87,152.87,104.31,152.87z M104.31,145.11c-1.73,0-3.13,1.4-3.13,3.13s1.41,3.13,3.13,3.13s3.13-1.41,3.13-3.13
			S106.04,145.11,104.31,145.11z"/>
	</g>
	<g>
		<path class="st1" d="M146.18,109.67h-33.06c-0.41,0-0.75-0.34-0.75-0.75s0.34-0.75,0.75-0.75h33.06c0.41,0,0.75,0.34,0.75,0.75
			S146.6,109.67,146.18,109.67z"/>
	</g>
	<g>
		<path class="st1" d="M146.18,129.33h-33.06c-0.41,0-0.75-0.34-0.75-0.75s0.34-0.75,0.75-0.75h33.06c0.41,0,0.75,0.34,0.75,0.75
			S146.6,129.33,146.18,129.33z"/>
	</g>
	<g>
		<path class="st1" d="M146.18,148.99h-33.06c-0.41,0-0.75-0.34-0.75-0.75s0.34-0.75,0.75-0.75h33.06c0.41,0,0.75,0.34,0.75,0.75
			S146.6,148.99,146.18,148.99z"/>
	</g>
	<g>
		<g>
			<path class="st1" d="M104.65,111.41c-0.21,0-0.42-0.09-0.57-0.26l-2.41-2.81c-0.27-0.31-0.23-0.79,0.08-1.06
				c0.32-0.27,0.79-0.23,1.06,0.08l2.41,2.81c0.27,0.31,0.23,0.79-0.08,1.06C105,111.35,104.82,111.41,104.65,111.41z"/>
		</g>
		<g>
			<path class="st1" d="M104.65,111.41c-0.19,0-0.39-0.07-0.53-0.22c-0.29-0.29-0.29-0.77,0.01-1.06l5.68-5.62
				c0.29-0.29,0.77-0.29,1.06,0.01s0.29,0.77-0.01,1.06l-5.68,5.62C105.03,111.34,104.84,111.41,104.65,111.41z"/>
		</g>
	</g>
	<g>
		<g>
			<path class="st1" d="M104.99,130.72c-0.21,0-0.42-0.09-0.57-0.26l-2.41-2.81c-0.27-0.31-0.23-0.79,0.08-1.06
				c0.32-0.27,0.79-0.23,1.06,0.08l2.41,2.81c0.27,0.31,0.23,0.79-0.08,1.06C105.34,130.66,105.17,130.72,104.99,130.72z"/>
		</g>
		<g>
			<path class="st1" d="M104.99,130.72c-0.19,0-0.39-0.07-0.53-0.22c-0.29-0.29-0.29-0.77,0.01-1.06l5.68-5.62
				c0.29-0.29,0.77-0.29,1.06,0.01s0.29,0.77-0.01,1.06l-5.68,5.62C105.37,130.65,105.18,130.72,104.99,130.72z"/>
		</g>
	</g>
	<g>
		<g>
			<path class="st1" d="M105.06,150.73c-0.21,0-0.42-0.09-0.57-0.26l-2.41-2.81c-0.27-0.31-0.23-0.79,0.08-1.06
				c0.31-0.27,0.79-0.23,1.06,0.08l2.41,2.81c0.27,0.31,0.23,0.79-0.08,1.06C105.41,150.67,105.23,150.73,105.06,150.73z"/>
		</g>
		<g>
			<path class="st1" d="M105.06,150.73c-0.19,0-0.39-0.07-0.53-0.22c-0.29-0.29-0.29-0.77,0.01-1.06l5.68-5.62
				c0.3-0.29,0.77-0.29,1.06,0.01c0.29,0.29,0.29,0.77-0.01,1.06l-5.68,5.62C105.44,150.65,105.25,150.73,105.06,150.73z"/>
		</g>
	</g>
	<g>
		<path class="st1" d="M123.21,76.91c-1.4,0-2.54-1.14-2.54-2.54s1.14-2.54,2.54-2.54s2.54,1.14,2.54,2.54
			S124.61,76.91,123.21,76.91z M123.21,73.34c-0.57,0-1.04,0.46-1.04,1.04s0.46,1.04,1.04,1.04s1.04-0.46,1.04-1.04
			S123.78,73.34,123.21,73.34z"/>
	</g>
</g>
</svg>
